<svg width="24" height="24" viewBox="0 0 24 24" fill="none" xmlns="http://www.w3.org/2000/svg">
<rect opacity="0.01" width="24" height="24" fill="white" fill-opacity="0.01"/>
<path fill-rule="evenodd" clip-rule="evenodd" d="M3 5C3 3.89543 3.89543 3 5 3L9.25 3C10.3546 3 11.25 3.89543 11.25 5V11.25H5C3.89543 11.25 3 10.3546 3 9.25L3 5Z" fill="#2D5ED9"/>
<path fill-rule="evenodd" clip-rule="evenodd" d="M3 14.75C3 13.6454 3.89543 12.75 5 12.75H11.25V19C11.25 20.1046 10.3546 21 9.25 21H5C3.89543 21 3 20.1046 3 19L3 14.75Z" fill="#2D5ED9"/>
<path fill-rule="evenodd" clip-rule="evenodd" d="M12.75 12.75H19C20.1046 12.75 21 13.6454 21 14.75V19C21 20.1046 20.1046 21 19 21H14.75C13.6454 21 12.75 20.1046 12.75 19L12.75 12.75Z" fill="#2D5ED9"/>
<path fill-rule="evenodd" clip-rule="evenodd" d="M12.75 5C12.75 3.89543 13.6454 3 14.75 3H19C20.1046 3 21 3.89543 21 5V9.25C21 10.3546 20.1046 11.25 19 11.25H12.75L12.75 5Z" fill="#FFA22D"/>
</svg>
