<svg width="24" height="24" viewBox="0 0 24 24" fill="none" xmlns="http://www.w3.org/2000/svg">
<path fill-rule="evenodd" clip-rule="evenodd" d="M12 3.5C10.2051 3.5 8.75 4.95507 8.75 6.75C8.75 8.54493 10.2051 10 12 10C13.7949 10 15.25 8.54493 15.25 6.75C15.25 4.95507 13.7949 3.5 12 3.5ZM7.25 6.75C7.25 4.12665 9.37665 2 12 2C14.6234 2 16.75 4.12665 16.75 6.75C16.75 9.37335 14.6234 11.5 12 11.5C9.37665 11.5 7.25 9.37335 7.25 6.75Z" fill="#141824" fill-opacity="0.76"/>
<path fill-rule="evenodd" clip-rule="evenodd" d="M3 16.75C3 14.4028 4.90279 12.5 7.25 12.5H16.75C19.0972 12.5 21 14.4028 21 16.75V18.5C21 19.8807 19.8807 21 18.5 21H5.5C4.11929 21 3 19.8807 3 18.5V16.75ZM7.25 14C5.73122 14 4.5 15.2312 4.5 16.75V18.5C4.5 19.0523 4.94772 19.5 5.5 19.5H18.5C19.0523 19.5 19.5 19.0523 19.5 18.5V16.75C19.5 15.2312 18.2688 14 16.75 14H7.25Z" fill="#141824" fill-opacity="0.76"/>
</svg>
