<svg width="24" height="24" viewBox="0 0 24 24" fill="none" xmlns="http://www.w3.org/2000/svg">
<path fill-rule="evenodd" clip-rule="evenodd" d="M18.0005 9.83297C19.7147 10.5129 20.9391 12.1618 20.9978 14.1038L21 14.25V19.25C21 20.1843 20.2679 20.9476 19.346 20.9974L19.25 21H14.25C12.2449 21 10.5299 19.7576 9.83297 18.0005L11.5111 18.0003C12.0656 18.8662 13.0194 19.4517 14.1126 19.4971L14.25 19.5H19.25C19.3727 19.5 19.4748 19.4116 19.496 19.2949L19.5 19.25V14.25C19.5 13.0995 18.9022 12.0887 18.0003 11.5111L18.0005 9.83297ZM13.25 3C15.8281 3 17.9265 5.05395 17.9981 7.61476L18 7.75V13.25C18 15.8281 15.9461 17.9265 13.3852 17.9981L13.25 18H4.75C3.81572 18 3.05244 17.2679 3.00259 16.346L3 16.25V7.75C3 5.17188 5.05395 3.07348 7.61476 3.00189L7.75 3H13.25ZM13.25 4.5H7.75C5.99409 4.5 4.56342 5.8925 4.50205 7.63343L4.5 7.75V16.25C4.5 16.3727 4.58844 16.4748 4.70506 16.496L4.75 16.5H13.25C15.0059 16.5 16.4366 15.1075 16.4979 13.3666L16.5 13.25V7.75C16.5 5.99409 15.1075 4.56342 13.3666 4.50205L13.25 4.5Z" fill="#141824" fill-opacity="0.76"/>
</svg>
