<svg width="24" height="24" viewBox="0 0 24 24" fill="none" xmlns="http://www.w3.org/2000/svg">
<path fill-rule="evenodd" clip-rule="evenodd" d="M10 4.25C8.34315 4.25 7 5.59315 7 7.25C7 8.90685 8.34315 10.25 10 10.25C11.6569 10.25 13 8.90685 13 7.25C13 5.59315 11.6569 4.25 10 4.25ZM5.5 7.25C5.5 4.76472 7.51472 2.75 10 2.75C12.4853 2.75 14.5 4.76472 14.5 7.25C14.5 9.73528 12.4853 11.75 10 11.75C7.51472 11.75 5.5 9.73528 5.5 7.25Z" fill="#141824" fill-opacity="0.76"/>
<path fill-rule="evenodd" clip-rule="evenodd" d="M3 17C3 14.6528 4.90279 12.75 7.25 12.75H12.75C15.0972 12.75 17 14.6528 17 17V18.75C17 19.9926 15.9926 21 14.75 21H5.25C4.00736 21 3 19.9926 3 18.75V17ZM7.25 14.25C5.73122 14.25 4.5 15.4812 4.5 17V18.75C4.5 19.1642 4.83579 19.5 5.25 19.5H14.75C15.1642 19.5 15.5 19.1642 15.5 18.75V17C15.5 15.4812 14.2688 14.25 12.75 14.25H7.25Z" fill="#141824" fill-opacity="0.76"/>
<path fill-rule="evenodd" clip-rule="evenodd" d="M16.5 7.5C16.5 6.94772 16.9477 6.5 17.5 6.5H21C21.5523 6.5 22 6.94772 22 7.5C22 8.05228 21.5523 8.5 21 8.5H17.5C16.9477 8.5 16.5 8.05228 16.5 7.5Z" fill="#141824" fill-opacity="0.76"/>
<path fill-rule="evenodd" clip-rule="evenodd" d="M17.5 13C17.5 12.4477 17.9477 12 18.5 12H21C21.5523 12 22 12.4477 22 13C22 13.5523 21.5523 14 21 14H18.5C17.9477 14 17.5 13.5523 17.5 13Z" fill="#141824" fill-opacity="0.76"/>
<path d="M18.5 18.5C18.5 17.9477 18.9477 17.5 19.5 17.5H21C21.5523 17.5 22 17.9477 22 18.5C22 19.0523 21.5523 19.5 21 19.5H19.5C18.9477 19.5 18.5 19.0523 18.5 18.5Z" fill="#141824" fill-opacity="0.76"/>
</svg>
