<svg width="20" height="20" viewBox="0 0 20 20" fill="none" xmlns="http://www.w3.org/2000/svg">
<path d="M1 10C1 2.8 2.8 1 10 1C17.2 1 19 2.8 19 10C19 17.2 17.2 19 10 19C2.8 19 1 17.2 1 10Z" fill="url(#paint0_linear_3876_39593)"/>
<g filter="url(#filter0_di_3876_39593)">
<path fill-rule="evenodd" clip-rule="evenodd" d="M12.1 4.8811C12.3047 4.8811 12.4729 5.03726 12.4919 5.23693L12.4937 5.27485V5.6686H13.4125C14.0462 5.6686 14.5634 6.16768 14.5925 6.79425L14.5938 6.84985V13.4124C14.5938 14.0461 14.0947 14.5633 13.4681 14.5923L13.4125 14.5936H6.5875C5.95375 14.5936 5.43657 14.0945 5.40754 13.468L5.40625 13.4124V6.84985C5.40625 6.21611 5.90532 5.69893 6.53189 5.66989L6.5875 5.6686H7.50625V5.27485C7.50625 5.05739 7.68254 4.8811 7.9 4.8811C8.10467 4.8811 8.27287 5.03726 8.29195 5.23693L8.29375 5.27485V5.6686H11.7062V5.27485C11.7062 5.05739 11.8825 4.8811 12.1 4.8811ZM8.425 11.3124H7.9L7.86208 11.3142C7.66241 11.3332 7.50625 11.5014 7.50625 11.7061C7.50625 11.9108 7.66241 12.079 7.86208 12.0981L7.9 12.0999H8.425L8.46292 12.0981C8.66259 12.079 8.81875 11.9108 8.81875 11.7061C8.81875 11.5014 8.66259 11.3332 8.46292 11.3142L8.425 11.3124ZM10.2625 11.3124H9.7375L9.69958 11.3142C9.49991 11.3332 9.34375 11.5014 9.34375 11.7061C9.34375 11.9108 9.49991 12.079 9.69958 12.0981L9.7375 12.0999H10.2625L10.3004 12.0981C10.5001 12.079 10.6562 11.9108 10.6562 11.7061C10.6562 11.5014 10.5001 11.3332 10.3004 11.3142L10.2625 11.3124ZM8.425 9.73735H7.9L7.86208 9.73916C7.66241 9.75824 7.50625 9.92643 7.50625 10.1311C7.50625 10.3358 7.66241 10.504 7.86208 10.5231L7.9 10.5249H8.425L8.46292 10.5231C8.66259 10.504 8.81875 10.3358 8.81875 10.1311C8.81875 9.92643 8.66259 9.75824 8.46292 9.73916L8.425 9.73735ZM10.2625 9.73735H9.7375L9.69958 9.73916C9.49991 9.75824 9.34375 9.92643 9.34375 10.1311C9.34375 10.3358 9.49991 10.504 9.69958 10.5231L9.7375 10.5249H10.2625L10.3004 10.5231C10.5001 10.504 10.6562 10.3358 10.6562 10.1311C10.6562 9.92643 10.5001 9.75824 10.3004 9.73916L10.2625 9.73735ZM12.1 9.73735H11.575L11.5371 9.73916C11.3374 9.75824 11.1812 9.92643 11.1812 10.1311C11.1812 10.3358 11.3374 10.504 11.5371 10.5231L11.575 10.5249H12.1L12.1379 10.5231C12.3376 10.504 12.4937 10.3358 12.4937 10.1311C12.4937 9.92643 12.3376 9.75824 12.1379 9.73916L12.1 9.73735ZM8.425 8.16235H7.9L7.86208 8.16416C7.66241 8.18324 7.50625 8.35143 7.50625 8.5561C7.50625 8.76077 7.66241 8.92897 7.86208 8.94805L7.9 8.94985H8.425L8.46292 8.94805C8.66259 8.92897 8.81875 8.76077 8.81875 8.5561C8.81875 8.35143 8.66259 8.18324 8.46292 8.16416L8.425 8.16235ZM10.2625 8.16235H9.7375L9.69958 8.16416C9.49991 8.18324 9.34375 8.35143 9.34375 8.5561C9.34375 8.76077 9.49991 8.92897 9.69958 8.94805L9.7375 8.94985H10.2625L10.3004 8.94805C10.5001 8.92897 10.6562 8.76077 10.6562 8.5561C10.6562 8.35143 10.5001 8.18324 10.3004 8.16416L10.2625 8.16235ZM12.1 8.16235H11.575L11.5371 8.16416C11.3374 8.18324 11.1812 8.35143 11.1812 8.5561C11.1812 8.76077 11.3374 8.92897 11.5371 8.94805L11.575 8.94985H12.1L12.1379 8.94805C12.3376 8.92897 12.4937 8.76077 12.4937 8.5561C12.4937 8.35143 12.3376 8.18324 12.1379 8.16416L12.1 8.16235Z" fill="url(#paint1_linear_3876_39593)" shape-rendering="crispEdges"/>
</g>
<defs>
<filter id="filter0_di_3876_39593" x="4.57548" y="4.8811" width="10.0183" height="10.5432" filterUnits="userSpaceOnUse" color-interpolation-filters="sRGB">
<feFlood flood-opacity="0" result="BackgroundImageFix"/>
<feColorMatrix in="SourceAlpha" type="matrix" values="0 0 0 0 0 0 0 0 0 0 0 0 0 0 0 0 0 0 127 0" result="hardAlpha"/>
<feOffset dx="-0.415385" dy="0.415385"/>
<feGaussianBlur stdDeviation="0.207692"/>
<feComposite in2="hardAlpha" operator="out"/>
<feColorMatrix type="matrix" values="0 0 0 0 0 0 0 0 0 0 0 0 0 0 0 0 0 0 0.08 0"/>
<feBlend mode="normal" in2="BackgroundImageFix" result="effect1_dropShadow_3876_39593"/>
<feBlend mode="normal" in="SourceGraphic" in2="effect1_dropShadow_3876_39593" result="shape"/>
<feColorMatrix in="SourceAlpha" type="matrix" values="0 0 0 0 0 0 0 0 0 0 0 0 0 0 0 0 0 0 127 0" result="hardAlpha"/>
<feOffset dx="0.207692" dy="-0.311538"/>
<feComposite in2="hardAlpha" operator="arithmetic" k2="-1" k3="1"/>
<feColorMatrix type="matrix" values="0 0 0 0 1 0 0 0 0 1 0 0 0 0 1 0 0 0 0.5 0"/>
<feBlend mode="normal" in2="shape" result="effect2_innerShadow_3876_39593"/>
</filter>
<linearGradient id="paint0_linear_3876_39593" x1="2.8" y1="17.2" x2="17.2" y2="2.8" gradientUnits="userSpaceOnUse">
<stop stop-color="#37D39B"/>
<stop offset="1" stop-color="#77E3BC"/>
</linearGradient>
<linearGradient id="paint1_linear_3876_39593" x1="3.4924" y1="10.681" x2="16.2892" y2="8.62313" gradientUnits="userSpaceOnUse">
<stop stop-color="white" stop-opacity="0.57"/>
<stop offset="1" stop-color="white"/>
</linearGradient>
</defs>
</svg>
