<svg width="20" height="20" viewBox="0 0 20 20" fill="none" xmlns="http://www.w3.org/2000/svg">
<g opacity="0.6">
<path fill-rule="evenodd" clip-rule="evenodd" d="M3.32391 4.1255C4.05685 3.38967 5.18929 3.24284 6.08326 3.75509L6.17183 3.80852L6.34052 3.91997C6.61749 4.11022 6.87357 4.32291 7.10864 4.55798C7.3895 4.83883 7.63839 5.14968 7.8549 5.48974C8.41305 6.36619 8.30981 7.504 7.61469 8.26573L7.54321 8.34062L7.3552 8.52863C7.1519 8.73267 7.11429 9.04877 7.26435 9.29468C7.69895 10.0088 8.20246 10.6518 8.77531 11.2246C9.34816 11.7975 9.99116 12.301 10.7059 12.736C10.9337 12.875 11.2225 12.8525 11.4253 12.6864L11.4705 12.6455L11.6593 12.4568C12.4169 11.6989 13.5989 11.5681 14.5038 12.142C14.8473 12.3597 15.1602 12.6096 15.442 12.8913C15.7237 13.173 15.9736 13.486 16.1913 13.8295C16.7468 14.7062 16.6417 15.8422 15.9468 16.6006L15.8753 16.6752L15.3943 17.1562C14.369 18.1811 12.8655 18.5634 11.4752 18.1526C9.45994 17.557 7.50208 16.3025 5.59976 14.4002C3.69744 12.4979 2.44296 10.54 1.84736 8.52472C1.44901 7.17661 1.7964 5.72196 2.75241 4.7001L2.84382 4.60558L3.32391 4.1255ZM5.43646 4.82563C5.05816 4.62278 4.59342 4.67355 4.26799 4.95337L4.20866 5.00851L3.72778 5.48939C3.02661 6.19082 2.76509 7.21942 3.04612 8.17047C3.57803 9.97029 4.72019 11.7529 6.48364 13.5163C8.24709 15.2798 10.0297 16.4219 11.8295 16.9538C12.7453 17.2245 13.733 16.992 14.4312 16.3483L14.5105 16.2723L14.9919 15.7908C15.3365 15.447 15.3962 14.91 15.1355 14.4986C14.9667 14.2324 14.7744 13.9915 14.5581 13.7752C14.3418 13.5589 14.1009 13.3665 13.8345 13.1977C13.4453 12.9509 12.9433 12.9911 12.5991 13.2887L12.5432 13.3406L12.3536 13.5302C11.7416 14.14 10.7922 14.253 10.0554 13.8034C9.25686 13.3174 8.53521 12.7523 7.89143 12.1085C7.24765 11.4647 6.68254 10.7431 6.19693 9.94516C5.76303 9.23408 5.85256 8.3259 6.40701 7.71246L6.47053 7.64554L6.65889 7.45718C7.00385 7.11154 7.06272 6.57287 6.8005 6.16113C6.63267 5.8975 6.44088 5.65799 6.22476 5.44186C6.0511 5.2682 5.86233 5.11025 5.65809 4.96782L5.502 4.8639L5.43646 4.82563ZM13.75 2.33325C14.3142 2.33325 14.8014 2.66306 15.0292 3.14039L16.2821 2.61851C16.7919 2.40609 17.3774 2.64717 17.5898 3.15697C17.6304 3.25447 17.6553 3.35763 17.6636 3.46259L17.6667 3.54159V6.45825C17.6667 7.01054 17.219 7.45825 16.6667 7.45825C16.5611 7.45825 16.4563 7.44152 16.3562 7.40883L16.2821 7.38133L15.0292 6.85945C14.8134 7.31166 14.3648 7.63146 13.8385 7.66387L13.75 7.66659H10.8334C10.077 7.66659 9.45915 7.0739 9.4188 6.32765L9.4167 6.24992V3.74992C9.4167 2.9936 10.0094 2.3757 10.7556 2.33535L10.8334 2.33325H13.75ZM13.75 3.49992H10.8334C10.7091 3.49992 10.606 3.59058 10.5866 3.70937L10.5834 3.74992V6.24992C10.5834 6.37418 10.674 6.47727 10.7928 6.49665L10.8334 6.49992H13.75C13.8743 6.49992 13.9774 6.40926 13.9968 6.29047L14 6.24992V3.74992C14 3.62565 13.9094 3.52257 13.7906 3.50319L13.75 3.49992ZM16.5 3.79117L15.1667 4.347V5.65242L16.5 6.20825V3.79117Z" fill="#141824"/>
</g>
</svg>
