<svg width="20" height="20" viewBox="0 0 20 20" fill="none" xmlns="http://www.w3.org/2000/svg">
<g opacity="0.6">
<path fill-rule="evenodd" clip-rule="evenodd" d="M15.4168 2.70825C16.4228 2.70825 17.2437 3.50043 17.2898 4.49499L17.2918 4.58325V15.4166C17.2918 16.4225 16.4996 17.2435 15.5051 17.2895L15.4168 17.2916H4.5835C3.57755 17.2916 2.75663 16.4994 2.71054 15.5049L2.7085 15.4166V4.58325C2.7085 3.5773 3.50068 2.75638 4.49523 2.71029L4.5835 2.70825H15.4168ZM15.4168 3.95825H4.5835C4.25862 3.95825 3.99164 4.20612 3.96136 4.52306L3.9585 4.58325V15.4166C3.9585 15.7415 4.20637 16.0084 4.5233 16.0387L4.5835 16.0416H15.4168C15.7417 16.0416 16.0087 15.7937 16.039 15.4768L16.0418 15.4166V6.52575L9.73134 12.9383C9.46649 13.2074 9.03031 13.1797 8.79949 12.8925L8.76299 12.8423L6.14394 8.84228C5.95486 8.5535 6.03568 8.16612 6.32446 7.97703C6.59626 7.79907 6.9554 7.8602 7.15435 8.10876L7.18972 8.15755L9.38391 11.5087L16.0418 4.74325V4.58325C16.0418 4.25838 15.794 3.9914 15.477 3.96111L15.4168 3.95825Z" fill="#141824"/>
</g>
</svg>
