<svg width="20" height="20" viewBox="0 0 20 20" fill="none" xmlns="http://www.w3.org/2000/svg">
<g opacity="0.6">
<path fill-rule="evenodd" clip-rule="evenodd" d="M8.04226 2.7085C8.66795 2.7085 9.25005 3.02036 9.59722 3.53576L9.65006 3.61882L10.1718 4.48839C10.2735 4.65782 10.4484 4.76806 10.6424 4.78842L10.7077 4.79183H16.25C17.2559 4.79183 18.0769 5.58401 18.123 6.57856L18.125 6.66683V15.4168C18.125 16.4228 17.3328 17.2437 16.3383 17.2898L16.25 17.2918H3.75C2.74405 17.2918 1.92313 16.4996 1.87704 15.5051L1.875 15.4168V4.5835C1.875 3.57755 2.66718 2.75663 3.66174 2.71054L3.75 2.7085H8.04226ZM8.04226 3.9585H3.75C3.42513 3.9585 3.15815 4.20637 3.12786 4.5233L3.125 4.5835V15.4168C3.125 15.7417 3.37287 16.0087 3.68981 16.039L3.75 16.0418H16.25C16.5749 16.0418 16.8419 15.794 16.8721 15.477L16.875 15.4168V6.66683C16.875 6.34196 16.6271 6.07498 16.3102 6.04469L16.25 6.04183H10.7077C10.0821 6.04183 9.49995 5.72996 9.15277 5.21456L9.09994 5.13151L8.5782 4.26194C8.47654 4.09251 8.30158 3.98226 8.10757 3.96191L8.04226 3.9585ZM10.4167 7.29183C10.5318 7.29183 10.625 7.38505 10.6251 7.50008L10.6253 8.19772C11.1484 8.32134 11.6128 8.5966 11.9696 8.97452L12.5743 8.62553C12.6739 8.56802 12.8013 8.60216 12.8588 8.7018L13.2755 9.42353C13.333 9.52317 13.2989 9.65057 13.1993 9.70811L12.5953 10.0569C12.6689 10.3029 12.7083 10.5636 12.7083 10.8335C12.7083 11.1034 12.6689 11.3641 12.5953 11.6101L13.1993 11.9589C13.2989 12.0164 13.333 12.1438 13.2755 12.2435L12.8588 12.9652C12.8013 13.0648 12.6739 13.099 12.5743 13.0415L11.9696 12.6925C11.6128 13.0704 11.1484 13.3457 10.6253 13.4693L10.6251 14.1669C10.625 14.2819 10.5318 14.3752 10.4167 14.3752H9.58331C9.46826 14.3752 9.37499 14.2819 9.37498 14.1669L9.37491 13.4693C8.85179 13.3457 8.38728 13.0705 8.0304 12.6925L7.42574 13.0415C7.3261 13.099 7.1987 13.0648 7.14117 12.9652L6.72448 12.2435C6.66695 12.1438 6.70108 12.0164 6.80071 11.9589L7.40465 11.6101C7.33115 11.3641 7.29167 11.1034 7.29167 10.8335C7.29167 10.5636 7.33115 10.3029 7.40465 10.0569L6.80071 9.70811C6.70108 9.65057 6.66695 9.52317 6.72448 9.42353L7.14117 8.7018C7.1987 8.60216 7.3261 8.56802 7.42574 8.62553L8.0304 8.97452C8.38728 8.59654 8.85179 8.32125 9.37491 8.19766L9.37498 7.50014C9.37499 7.38509 9.46826 7.29183 9.58331 7.29183H10.4167ZM10 9.37516C9.19458 9.37516 8.54167 10.0281 8.54167 10.8335C8.54167 11.6389 9.19458 12.2918 10 12.2918C10.8054 12.2918 11.4583 11.6389 11.4583 10.8335C11.4583 10.0281 10.8054 9.37516 10 9.37516Z" fill="#141824"/>
</g>
</svg>
