<svg width="20" height="20" viewBox="0 0 20 20" fill="none" xmlns="http://www.w3.org/2000/svg">
<g opacity="0.6">
<path fill-rule="evenodd" clip-rule="evenodd" d="M11.0819 2.14003C10.3585 1.79892 9.52134 1.79498 8.79478 2.12926L1.30966 5.57305C0.787026 5.8135 0.558273 6.43211 0.79873 6.95475C0.900701 7.17638 1.07723 7.3552 1.29754 7.46001L3.53126 8.52218L3.53107 13.5382L3.5332 13.5786C3.53187 13.5632 3.53126 13.5583 3.53107 13.563L3.53177 13.652L3.53164 14.5017C3.53123 15.0111 3.73809 15.4987 4.10465 15.8524L4.5544 16.2864L4.56509 16.2753L4.6928 16.37C6.85706 17.9262 9.66497 18.2943 12.4199 17.537C12.0951 17.2014 11.8052 16.8341 11.5515 16.4637C9.33013 16.9399 7.13451 16.5802 5.43401 15.3633L5.32884 15.2853L5.2981 15.2585C5.22672 15.1933 5.14313 15.1149 5.04759 15.0234L4.95676 14.9357L4.92935 14.9067C4.84788 14.8103 4.79746 14.6915 4.78479 14.566L4.78164 14.5028L4.78126 9.11676L8.78075 11.02C9.51194 11.3679 10.3604 11.3703 11.0936 11.0267L14.4097 9.47234L14.5496 9.38138L16.8875 8.31106L18.5331 7.54002C19.0323 7.30604 19.2592 6.72669 19.0623 6.22034L19.0342 6.15474C18.9312 5.93501 18.7548 5.75813 18.5353 5.65463L11.0819 2.14003ZM9.31724 3.26484C9.70847 3.08484 10.1592 3.08697 10.5488 3.27064L17.6016 6.59603L10.5631 9.89487C10.1965 10.0667 9.77642 10.0778 9.40304 9.92856L9.31775 9.89127L2.23705 6.52228L9.31724 3.26484Z" fill="#141824"/>
<path d="M2.06389 8.96956C1.71871 8.96956 1.43889 9.24938 1.43889 9.59456V11.829C1.43889 12.1741 1.71871 12.454 2.06389 12.454C2.40907 12.454 2.68889 12.1741 2.68889 11.829V9.59456C2.68889 9.24938 2.40907 8.96956 2.06389 8.96956Z" fill="#141824"/>
<path fill-rule="evenodd" clip-rule="evenodd" d="M15.5913 10.328C15.7585 10.1118 15.955 9.89318 16.1756 9.6999C16.7053 9.23582 17.396 8.90685 18.0749 9.15876C19.5638 9.71124 19.5006 11.8433 18.7218 13.379C18.5653 13.6875 18.2367 14.2171 17.88 14.7751C17.5051 15.3617 17.123 15.9439 16.7408 16.5262C16.6261 16.701 16.5114 16.8758 16.3968 17.0508C16.1869 17.3715 15.9 17.6203 15.5912 17.7327C15.2824 17.8451 14.9956 17.805 14.7857 17.6372C14.6898 17.5606 14.588 17.4795 14.4825 17.3955C14.1526 17.1328 13.7872 16.842 13.4585 16.5708C13.0364 16.2226 12.6366 15.8767 12.4607 15.6579C11.6819 14.689 11.6187 12.603 13.1076 10.9667C13.5663 10.4626 14.046 10.2062 14.4877 10.1315C14.9005 10.0617 15.2776 10.1506 15.5913 10.328ZM17.2579 10.4231C16.6003 10.3134 15.869 11.3952 15.5912 11.8814C14.3809 10.6709 13.3584 11.7629 13.1294 13.0442C12.9601 13.992 13.2246 14.629 13.931 15.2147C14.4505 15.6455 15.1617 16.164 15.5912 16.4647C16.2162 15.4925 17.5496 13.423 17.8829 12.923C18.2996 12.298 18.5079 10.6314 17.2579 10.4231Z" fill="#141824"/>
</g>
</svg>
