<svg width="20" height="20" viewBox="0 0 20 20" fill="none" xmlns="http://www.w3.org/2000/svg">
<g opacity="0.6">
<path fill-rule="evenodd" clip-rule="evenodd" d="M3.75016 11.0418C4.32546 11.0418 4.79183 10.5755 4.79183 10.0002C4.79183 9.42487 4.32546 8.9585 3.75016 8.9585C3.17487 8.9585 2.7085 9.42487 2.7085 10.0002C2.7085 10.5755 3.17487 11.0418 3.75016 11.0418ZM10.0002 11.0418C10.5755 11.0418 11.0418 10.5755 11.0418 10.0002C11.0418 9.42487 10.5755 8.9585 10.0002 8.9585C9.42487 8.9585 8.9585 9.42487 8.9585 10.0002C8.9585 10.5755 9.42487 11.0418 10.0002 11.0418ZM16.2502 11.0418C16.8255 11.0418 17.2918 10.5755 17.2918 10.0002C17.2918 9.42487 16.8255 8.9585 16.2502 8.9585C15.6749 8.9585 15.2085 9.42487 15.2085 10.0002C15.2085 10.5755 15.6749 11.0418 16.2502 11.0418Z" fill="#2A2F3C"/>
</g>
</svg>
