<svg width="20" height="20" viewBox="0 0 20 20" fill="none" xmlns="http://www.w3.org/2000/svg">
<g opacity="0.6">
<path fill-rule="evenodd" clip-rule="evenodd" d="M13.2324 2.0835C13.6965 2.0835 14.1429 2.25558 14.4863 2.56441L14.5582 2.63267L16.7427 4.8171C17.0708 5.14529 17.2648 5.58262 17.2892 6.04378L17.2918 6.14293V16.0418C17.2918 17.0478 16.4996 17.8687 15.5051 17.9148L15.4168 17.9168H4.5835C3.57755 17.9168 2.75663 17.1246 2.71054 16.1301L2.7085 16.0418V3.9585C2.7085 2.95255 3.50068 2.13163 4.49523 2.08554L4.5835 2.0835H13.2324ZM12.2918 3.3335H4.5835C4.25862 3.3335 3.99164 3.58137 3.96136 3.8983L3.9585 3.9585V16.0418C3.9585 16.3667 4.20637 16.6337 4.5233 16.664L4.5835 16.6668H15.4168C15.7417 16.6668 16.0087 16.419 16.039 16.102L16.0418 16.0418V7.0835H13.7502C12.9716 7.0835 12.3355 6.47338 12.294 5.70518L12.2918 5.62516V3.3335ZM13.4154 8.3247C13.6573 8.53969 13.6928 8.90033 13.5073 9.15715L13.4673 9.20706L9.46729 13.7071C9.22429 13.9804 8.8041 13.9851 8.55435 13.73L8.51212 13.6823L6.51212 11.1823C6.29649 10.9127 6.34019 10.5194 6.60973 10.3038C6.86242 10.1016 7.22389 10.1274 7.44577 10.3535L7.48821 10.4014L9.02516 12.3222L12.533 8.3766C12.7624 8.11861 13.1574 8.09537 13.4154 8.3247ZM13.5424 3.41579L13.5418 5.62516C13.5418 5.72744 13.6155 5.8125 13.7127 5.83014L13.7502 5.8335L15.9598 5.83335C15.9415 5.80134 15.9204 5.77085 15.8965 5.74231L15.8588 5.70099L13.6743 3.51655C13.6347 3.4769 13.5903 3.44313 13.5424 3.41579Z" fill="#141824"/>
</g>
</svg>
