<svg width="20" height="20" viewBox="0 0 20 20" fill="none" xmlns="http://www.w3.org/2000/svg">
<g opacity="0.6">
<path fill-rule="evenodd" clip-rule="evenodd" d="M13.2324 2.08325C13.6965 2.08325 14.1429 2.25533 14.4863 2.56417L14.5582 2.63243L16.7427 4.81686C17.0708 5.14505 17.2648 5.58237 17.2892 6.04353L17.2918 6.14269V16.0416C17.2918 17.0475 16.4996 17.8685 15.5051 17.9145L15.4168 17.9166H4.5835C3.57755 17.9166 2.75663 17.1244 2.71054 16.1298L2.7085 16.0416V3.95825C2.7085 2.9523 3.50068 2.13138 4.49523 2.08529L4.5835 2.08325H13.2324ZM12.2918 3.33325H4.5835C4.25862 3.33325 3.99164 3.58112 3.96136 3.89806L3.9585 3.95825V16.0416C3.9585 16.3665 4.20637 16.6334 4.5233 16.6637L4.5835 16.6666H15.4168C15.7417 16.6666 16.0087 16.4187 16.039 16.1018L16.0418 16.0416V7.08325H13.7502C12.9716 7.08325 12.3355 6.47314 12.294 5.70493L12.2918 5.62492V3.33325ZM7.56266 8.02492L8.47933 11.7666L9.56266 8.02492H10.4293L11.5127 11.7666L12.4377 8.02492H13.646L12.0543 13.9583H11.0877L9.996 10.3583L8.90433 13.9583H7.93766L6.35433 8.02492H7.56266ZM13.5424 3.41555L13.5418 5.62492C13.5418 5.72719 13.6155 5.81226 13.7127 5.8299L13.7502 5.83325L15.9598 5.8331C15.9415 5.80109 15.9204 5.77061 15.8965 5.74206L15.8588 5.70074L13.6743 3.51631C13.6347 3.47666 13.5903 3.44289 13.5424 3.41555Z" fill="#141824"/>
</g>
</svg>
