<svg width="20" height="20" viewBox="0 0 20 20" fill="none" xmlns="http://www.w3.org/2000/svg">
<g opacity="0.6">
<path fill-rule="evenodd" clip-rule="evenodd" d="M13.3335 1.875C13.6584 1.875 13.9253 2.12287 13.9556 2.43981L13.9585 2.5V3.125H15.4168C16.4228 3.125 17.2437 3.91718 17.2898 4.91174L17.2918 5V15.4167C17.2918 16.4226 16.4996 17.2435 15.5051 17.2896L15.4168 17.2917H4.5835C3.57755 17.2917 2.75663 16.4995 2.71054 15.5049L2.7085 15.4167V5C2.7085 3.99405 3.50068 3.17313 4.49523 3.12704L4.5835 3.125H6.04183V2.5C6.04183 2.15482 6.32165 1.875 6.66683 1.875C6.9917 1.875 7.25868 2.12287 7.28897 2.43981L7.29183 2.5V3.125H12.7085V2.5C12.7085 2.15482 12.9883 1.875 13.3335 1.875ZM6.04183 4.375H4.5835C4.25862 4.375 3.99164 4.62287 3.96136 4.93981L3.9585 5V15.4167C3.9585 15.7415 4.20637 16.0085 4.5233 16.0388L4.5835 16.0417H15.4168C15.7417 16.0417 16.0087 15.7938 16.039 15.4769L16.0418 15.4167V5C16.0418 4.67513 15.794 4.40815 15.477 4.37786L15.4168 4.375H13.9585V5C13.9585 5.34518 13.6787 5.625 13.3335 5.625C13.0086 5.625 12.7416 5.37713 12.7114 5.06019L12.7085 5V4.375H7.29183V5C7.29183 5.34518 7.01201 5.625 6.66683 5.625C6.34196 5.625 6.07498 5.37713 6.04469 5.06019L6.04183 5V4.375ZM7.50016 12.2917C7.84534 12.2917 8.12516 12.5715 8.12516 12.9167C8.12516 13.2415 7.87729 13.5085 7.56035 13.5388L7.50016 13.5417H6.66683C6.32165 13.5417 6.04183 13.2618 6.04183 12.9167C6.04183 12.5918 6.2897 12.3248 6.60664 12.2945L6.66683 12.2917H7.50016ZM10.4168 12.2917C10.762 12.2917 11.0418 12.5715 11.0418 12.9167C11.0418 13.2415 10.794 13.5085 10.477 13.5388L10.4168 13.5417H9.5835C9.23832 13.5417 8.9585 13.2618 8.9585 12.9167C8.9585 12.5918 9.20637 12.3248 9.5233 12.2945L9.5835 12.2917H10.4168ZM7.50016 9.79167C7.84534 9.79167 8.12516 10.0715 8.12516 10.4167C8.12516 10.7415 7.87729 11.0085 7.56035 11.0388L7.50016 11.0417H6.66683C6.32165 11.0417 6.04183 10.7618 6.04183 10.4167C6.04183 10.0918 6.2897 9.82481 6.60664 9.79453L6.66683 9.79167H7.50016ZM10.4168 9.79167C10.762 9.79167 11.0418 10.0715 11.0418 10.4167C11.0418 10.7415 10.794 11.0085 10.477 11.0388L10.4168 11.0417H9.5835C9.23832 11.0417 8.9585 10.7618 8.9585 10.4167C8.9585 10.0918 9.20637 9.82481 9.5233 9.79453L9.5835 9.79167H10.4168ZM13.3335 9.79167C13.6787 9.79167 13.9585 10.0715 13.9585 10.4167C13.9585 10.7415 13.7106 11.0085 13.3937 11.0388L13.3335 11.0417H12.5002C12.155 11.0417 11.8752 10.7618 11.8752 10.4167C11.8752 10.0918 12.123 9.82481 12.44 9.79453L12.5002 9.79167H13.3335ZM7.50016 7.29167C7.84534 7.29167 8.12516 7.57149 8.12516 7.91667C8.12516 8.24154 7.87729 8.50852 7.56035 8.53881L7.50016 8.54167H6.66683C6.32165 8.54167 6.04183 8.26185 6.04183 7.91667C6.04183 7.59179 6.2897 7.32481 6.60664 7.29453L6.66683 7.29167H7.50016ZM10.4168 7.29167C10.762 7.29167 11.0418 7.57149 11.0418 7.91667C11.0418 8.24154 10.794 8.50852 10.477 8.53881L10.4168 8.54167H9.5835C9.23832 8.54167 8.9585 8.26185 8.9585 7.91667C8.9585 7.59179 9.20637 7.32481 9.5233 7.29453L9.5835 7.29167H10.4168ZM13.3335 7.29167C13.6787 7.29167 13.9585 7.57149 13.9585 7.91667C13.9585 8.24154 13.7106 8.50852 13.3937 8.53881L13.3335 8.54167H12.5002C12.155 8.54167 11.8752 8.26185 11.8752 7.91667C11.8752 7.59179 12.123 7.32481 12.44 7.29453L12.5002 7.29167H13.3335Z" fill="#141824"/>
</g>
</svg>
