<svg width="20" height="20" viewBox="0 0 20 20" fill="none" xmlns="http://www.w3.org/2000/svg">
<path d="M1 10C1 2.8 2.8 1 10 1C17.2 1 19 2.8 19 10C19 17.2 17.2 19 10 19C2.8 19 1 17.2 1 10Z" fill="url(#paint0_linear_3876_39596)"/>
<g filter="url(#filter0_di_3876_39596)">
<path fill-rule="evenodd" clip-rule="evenodd" d="M8.76672 5.40625C9.16091 5.40625 9.52763 5.60273 9.74635 5.92743L9.77964 5.97975L10.1083 6.52758C10.1724 6.63432 10.2826 6.70378 10.4048 6.7166L10.446 6.71875H13.9376C14.5713 6.71875 15.0885 7.21782 15.1176 7.84439L15.1188 7.9V13.4125C15.1188 14.0462 14.6198 14.5634 13.9932 14.5925L13.9376 14.5938H6.0626C5.42885 14.5938 4.91167 14.0947 4.88263 13.4681L4.88135 13.4125V6.5875C4.88135 5.95375 5.38042 5.43657 6.00699 5.40754L6.0626 5.40625H8.76672ZM10.2626 8.29375H9.7376C9.67317 8.29376 9.61958 8.34019 9.60846 8.40141L9.60634 8.425L9.60629 8.86442C9.30208 8.93629 9.02933 9.0896 8.81232 9.30006L8.75925 9.35385L8.37833 9.13399C8.32252 9.10179 8.2529 9.11521 8.21266 9.16267L8.19903 9.18204L7.93653 9.63671C7.90433 9.69251 7.91774 9.76213 7.96519 9.80238L7.98456 9.81601L8.36503 10.0357C8.31872 10.1907 8.29385 10.355 8.29385 10.525C8.29385 10.6667 8.31112 10.8044 8.34368 10.936L8.36503 11.0143L7.98456 11.234C7.92878 11.2662 7.90559 11.3332 7.92657 11.3918L7.93653 11.4133L8.19903 11.868C8.23126 11.9237 8.29825 11.9469 8.35684 11.926L8.37833 11.916L8.75925 11.6962C8.96679 11.916 9.2321 12.0807 9.53091 12.1659L9.60629 12.1856L9.60634 12.625C9.60635 12.6894 9.65278 12.743 9.71401 12.7541L9.7376 12.7562H10.2626C10.327 12.7562 10.3806 12.7098 10.3918 12.6486L10.3939 12.625L10.3941 12.1855C10.6982 12.1137 10.9709 11.9604 11.1879 11.7499L11.2409 11.6962L11.6219 11.916C11.6777 11.9482 11.7473 11.9348 11.7875 11.8873L11.8012 11.868L12.0637 11.4133C12.0959 11.3575 12.0825 11.2879 12.035 11.2476L12.0156 11.234L11.6352 11.0143C11.6815 10.8593 11.7063 10.695 11.7063 10.525C11.7063 10.3833 11.6891 10.2456 11.6565 10.114L11.6352 10.0357L12.0156 9.81601C12.0714 9.78378 12.0946 9.71678 12.0736 9.6582L12.0637 9.63671L11.8012 9.18204C11.7689 9.12625 11.7019 9.10306 11.6434 9.12403L11.6219 9.13399L11.2409 9.35385C11.0334 9.13407 10.7682 8.9694 10.4694 8.88411L10.3941 8.86446L10.3939 8.425C10.3938 8.36058 10.3474 8.30702 10.2862 8.29588L10.2626 8.29375ZM10.0001 9.60625C10.5075 9.60625 10.9188 10.0176 10.9188 10.525C10.9188 11.0324 10.5075 11.4437 10.0001 11.4437C9.49269 11.4437 9.08135 11.0324 9.08135 10.525C9.08135 10.0176 9.49269 9.60625 10.0001 9.60625Z" fill="url(#paint1_linear_3876_39596)" shape-rendering="crispEdges"/>
</g>
<defs>
<filter id="filter0_di_3876_39596" x="3.21981" y="5.40625" width="11.8988" height="10.849" filterUnits="userSpaceOnUse" color-interpolation-filters="sRGB">
<feFlood flood-opacity="0" result="BackgroundImageFix"/>
<feColorMatrix in="SourceAlpha" type="matrix" values="0 0 0 0 0 0 0 0 0 0 0 0 0 0 0 0 0 0 127 0" result="hardAlpha"/>
<feOffset dx="-0.830769" dy="0.830769"/>
<feGaussianBlur stdDeviation="0.415385"/>
<feComposite in2="hardAlpha" operator="out"/>
<feColorMatrix type="matrix" values="0 0 0 0 0 0 0 0 0 0 0 0 0 0 0 0 0 0 0.08 0"/>
<feBlend mode="normal" in2="BackgroundImageFix" result="effect1_dropShadow_3876_39596"/>
<feBlend mode="normal" in="SourceGraphic" in2="effect1_dropShadow_3876_39596" result="shape"/>
<feColorMatrix in="SourceAlpha" type="matrix" values="0 0 0 0 0 0 0 0 0 0 0 0 0 0 0 0 0 0 127 0" result="hardAlpha"/>
<feOffset dx="0.415385" dy="-0.623077"/>
<feComposite in2="hardAlpha" operator="arithmetic" k2="-1" k3="1"/>
<feColorMatrix type="matrix" values="0 0 0 0 1 0 0 0 0 1 0 0 0 0 1 0 0 0 0.5 0"/>
<feBlend mode="normal" in2="shape" result="effect2_innerShadow_3876_39596"/>
</filter>
<linearGradient id="paint0_linear_3876_39596" x1="2.8" y1="17.2" x2="17.2" y2="2.8" gradientUnits="userSpaceOnUse">
<stop stop-color="#FBA447"/>
<stop offset="1" stop-color="#FFC97A"/>
</linearGradient>
<linearGradient id="paint1_linear_3876_39596" x1="2.74877" y1="10.8926" x2="16.8701" y2="8.21765" gradientUnits="userSpaceOnUse">
<stop stop-color="white" stop-opacity="0.5"/>
<stop offset="1" stop-color="white"/>
</linearGradient>
</defs>
</svg>
