<svg width="20" height="20" viewBox="0 0 20 20" fill="none" xmlns="http://www.w3.org/2000/svg">
<g opacity="0.6">
<path fill-rule="evenodd" clip-rule="evenodd" d="M10 1.875C10.3249 1.875 10.5919 2.12287 10.6221 2.43981L10.625 2.5L10.6251 3.15304C13.9234 3.45033 16.5499 6.07698 16.847 9.37527L17.5 9.375C17.8452 9.375 18.125 9.65482 18.125 10C18.125 10.3249 17.8771 10.5919 17.5602 10.6221L17.5 10.625L16.847 10.6251C16.5497 13.9232 13.9232 16.5497 10.6251 16.847L10.625 17.5C10.625 17.8452 10.3452 18.125 10 18.125C9.67513 18.125 9.40815 17.8771 9.37786 17.5602L9.375 17.5L9.37527 16.847C6.07698 16.5499 3.45033 13.9234 3.15304 10.6251L2.5 10.625C2.15482 10.625 1.875 10.3452 1.875 10C1.875 9.67513 2.12287 9.40815 2.43981 9.37786L2.5 9.375L3.153 9.37527C3.45011 6.07684 6.07684 3.45011 9.37527 3.153L9.375 2.5C9.375 2.15482 9.65482 1.875 10 1.875ZM10.6252 4.40935L10.625 4.58333C10.625 4.92851 10.3452 5.20833 10 5.20833C9.67513 5.20833 9.40815 4.96046 9.37786 4.64352L9.375 4.58333L9.37522 4.40931C6.76778 4.69744 4.69744 6.76778 4.40931 9.37522L4.58333 9.375C4.92851 9.375 5.20833 9.65482 5.20833 10C5.20833 10.3249 4.96046 10.5919 4.64352 10.6221L4.58333 10.625L4.40935 10.6252C4.69766 13.2324 6.76792 15.3026 9.37522 15.5907L9.375 15.4167C9.375 15.0715 9.65482 14.7917 10 14.7917C10.3249 14.7917 10.5919 15.0395 10.6221 15.3565L10.625 15.4167L10.6252 15.5906C13.2323 15.3024 15.3024 13.2323 15.5906 10.6252L15.4167 10.625C15.0715 10.625 14.7917 10.3452 14.7917 10C14.7917 9.67513 15.0395 9.40815 15.3565 9.37786L15.4167 9.375L15.5907 9.37522C15.3075 6.81211 13.3021 4.76799 10.7573 4.42554L10.6252 4.40935ZM10 7.29167C11.4958 7.29167 12.7083 8.50423 12.7083 10C12.7083 11.4958 11.4958 12.7083 10 12.7083C8.50423 12.7083 7.29167 11.4958 7.29167 10C7.29167 8.50423 8.50423 7.29167 10 7.29167ZM10 8.54167C9.19458 8.54167 8.54167 9.19458 8.54167 10C8.54167 10.8054 9.19458 11.4583 10 11.4583C10.8054 11.4583 11.4583 10.8054 11.4583 10C11.4583 9.19458 10.8054 8.54167 10 8.54167Z" fill="#141824"/>
</g>
</svg>
